<mxfile host="Electron" agent="Mozilla/5.0 (X11; Linux x86_64) AppleWebKit/537.36 (KHTML, like Gecko) draw.io/24.7.17 Chrome/128.0.6613.36 Electron/32.0.1 Safari/537.36" version="24.7.17">
  <diagram name="Страница — 1" id="6SzWJXjd3jO-udMxWJHo">
    <mxGraphModel dx="1816" dy="1732" grid="1" gridSize="10" guides="1" tooltips="1" connect="1" arrows="1" fold="1" page="1" pageScale="1" pageWidth="827" pageHeight="1169" math="0" shadow="0">
      <root>
        <mxCell id="0" />
        <mxCell id="1" parent="0" />
        <mxCell id="BlD8Izyi_1TjI5sXSvks-8" value="" style="shape=flexArrow;endArrow=classic;html=1;rounded=0;entryX=0.5;entryY=0;entryDx=0;entryDy=0;entryPerimeter=0;" edge="1" parent="1" target="BlD8Izyi_1TjI5sXSvks-37">
          <mxGeometry width="50" height="50" relative="1" as="geometry">
            <mxPoint y="130" as="sourcePoint" />
            <mxPoint x="0.339999999999975" y="180" as="targetPoint" />
          </mxGeometry>
        </mxCell>
        <mxCell id="BlD8Izyi_1TjI5sXSvks-10" style="edgeStyle=orthogonalEdgeStyle;rounded=0;orthogonalLoop=1;jettySize=auto;html=1;entryX=0;entryY=0.5;entryDx=0;entryDy=0;entryPerimeter=0;" edge="1" parent="1" source="BlD8Izyi_1TjI5sXSvks-9" target="BlD8Izyi_1TjI5sXSvks-12">
          <mxGeometry relative="1" as="geometry">
            <mxPoint x="160" y="410" as="targetPoint" />
          </mxGeometry>
        </mxCell>
        <mxCell id="BlD8Izyi_1TjI5sXSvks-11" value="ДА" style="edgeLabel;html=1;align=center;verticalAlign=middle;resizable=0;points=[];" vertex="1" connectable="0" parent="BlD8Izyi_1TjI5sXSvks-10">
          <mxGeometry x="-0.1527" y="-3" relative="1" as="geometry">
            <mxPoint y="-3" as="offset" />
          </mxGeometry>
        </mxCell>
        <mxCell id="BlD8Izyi_1TjI5sXSvks-9" value="Есть на соседней клетке&lt;div&gt;своя фигура?&lt;/div&gt;" style="strokeWidth=2;html=1;shape=mxgraph.flowchart.decision;whiteSpace=wrap;" vertex="1" parent="1">
          <mxGeometry x="-90" y="350" width="180" height="120" as="geometry" />
        </mxCell>
        <mxCell id="BlD8Izyi_1TjI5sXSvks-14" style="edgeStyle=orthogonalEdgeStyle;rounded=0;orthogonalLoop=1;jettySize=auto;html=1;exitX=1;exitY=0.5;exitDx=0;exitDy=0;exitPerimeter=0;" edge="1" parent="1" source="BlD8Izyi_1TjI5sXSvks-12" target="BlD8Izyi_1TjI5sXSvks-16">
          <mxGeometry relative="1" as="geometry">
            <mxPoint x="460" y="410" as="targetPoint" />
          </mxGeometry>
        </mxCell>
        <mxCell id="BlD8Izyi_1TjI5sXSvks-15" value="ДА" style="edgeLabel;html=1;align=center;verticalAlign=middle;resizable=0;points=[];" vertex="1" connectable="0" parent="BlD8Izyi_1TjI5sXSvks-14">
          <mxGeometry x="-0.1595" relative="1" as="geometry">
            <mxPoint as="offset" />
          </mxGeometry>
        </mxCell>
        <mxCell id="BlD8Izyi_1TjI5sXSvks-19" style="edgeStyle=orthogonalEdgeStyle;rounded=0;orthogonalLoop=1;jettySize=auto;html=1;exitX=0.5;exitY=1;exitDx=0;exitDy=0;exitPerimeter=0;" edge="1" parent="1" source="BlD8Izyi_1TjI5sXSvks-12" target="BlD8Izyi_1TjI5sXSvks-22">
          <mxGeometry relative="1" as="geometry">
            <mxPoint x="275" y="585" as="targetPoint" />
          </mxGeometry>
        </mxCell>
        <mxCell id="BlD8Izyi_1TjI5sXSvks-21" value="НЕТ" style="edgeLabel;html=1;align=center;verticalAlign=middle;resizable=0;points=[];" vertex="1" connectable="0" parent="BlD8Izyi_1TjI5sXSvks-19">
          <mxGeometry x="-0.1143" y="1" relative="1" as="geometry">
            <mxPoint as="offset" />
          </mxGeometry>
        </mxCell>
        <mxCell id="BlD8Izyi_1TjI5sXSvks-12" value="Можно продолжить линию&lt;div&gt;в эту сторону?&lt;/div&gt;" style="strokeWidth=2;html=1;shape=mxgraph.flowchart.decision;whiteSpace=wrap;" vertex="1" parent="1">
          <mxGeometry x="190" y="340" width="170" height="140" as="geometry" />
        </mxCell>
        <mxCell id="BlD8Izyi_1TjI5sXSvks-17" style="edgeStyle=orthogonalEdgeStyle;rounded=0;orthogonalLoop=1;jettySize=auto;html=1;" edge="1" parent="1" source="BlD8Izyi_1TjI5sXSvks-16" target="BlD8Izyi_1TjI5sXSvks-18">
          <mxGeometry relative="1" as="geometry">
            <mxPoint x="520" y="760" as="targetPoint" />
          </mxGeometry>
        </mxCell>
        <mxCell id="BlD8Izyi_1TjI5sXSvks-16" value="Нарисовать свою&lt;div&gt;фигуру&lt;/div&gt;" style="rounded=1;whiteSpace=wrap;html=1;absoluteArcSize=1;arcSize=14;strokeWidth=2;" vertex="1" parent="1">
          <mxGeometry x="470" y="360" width="100" height="100" as="geometry" />
        </mxCell>
        <mxCell id="BlD8Izyi_1TjI5sXSvks-18" value="ВЫИГРЫШ&lt;div&gt;КОМПЬЮТЕРА&lt;/div&gt;" style="rounded=1;whiteSpace=wrap;html=1;absoluteArcSize=1;arcSize=14;strokeWidth=2;fillColor=#d5e8d4;strokeColor=#82b366;" vertex="1" parent="1">
          <mxGeometry x="640" y="500" width="100" height="100" as="geometry" />
        </mxCell>
        <mxCell id="BlD8Izyi_1TjI5sXSvks-23" style="edgeStyle=orthogonalEdgeStyle;rounded=0;orthogonalLoop=1;jettySize=auto;html=1;exitX=1;exitY=0.5;exitDx=0;exitDy=0;exitPerimeter=0;entryX=0.5;entryY=1;entryDx=0;entryDy=0;" edge="1" parent="1" source="BlD8Izyi_1TjI5sXSvks-22" target="BlD8Izyi_1TjI5sXSvks-16">
          <mxGeometry relative="1" as="geometry" />
        </mxCell>
        <mxCell id="BlD8Izyi_1TjI5sXSvks-24" value="ДА" style="edgeLabel;html=1;align=center;verticalAlign=middle;resizable=0;points=[];" vertex="1" connectable="0" parent="BlD8Izyi_1TjI5sXSvks-23">
          <mxGeometry x="-0.4246" y="-1" relative="1" as="geometry">
            <mxPoint as="offset" />
          </mxGeometry>
        </mxCell>
        <mxCell id="BlD8Izyi_1TjI5sXSvks-25" style="edgeStyle=orthogonalEdgeStyle;rounded=0;orthogonalLoop=1;jettySize=auto;html=1;exitX=0.5;exitY=1;exitDx=0;exitDy=0;exitPerimeter=0;" edge="1" parent="1" source="BlD8Izyi_1TjI5sXSvks-22" target="BlD8Izyi_1TjI5sXSvks-26">
          <mxGeometry relative="1" as="geometry">
            <mxPoint x="276.3333333333335" y="820" as="targetPoint" />
          </mxGeometry>
        </mxCell>
        <mxCell id="BlD8Izyi_1TjI5sXSvks-27" value="НЕТ" style="edgeLabel;html=1;align=center;verticalAlign=middle;resizable=0;points=[];" vertex="1" connectable="0" parent="BlD8Izyi_1TjI5sXSvks-25">
          <mxGeometry x="-0.2728" y="-1" relative="1" as="geometry">
            <mxPoint as="offset" />
          </mxGeometry>
        </mxCell>
        <mxCell id="BlD8Izyi_1TjI5sXSvks-22" value="Можно продолжить линию&lt;div&gt;в противоположную сторону?&lt;/div&gt;" style="strokeWidth=2;html=1;shape=mxgraph.flowchart.decision;whiteSpace=wrap;" vertex="1" parent="1">
          <mxGeometry x="202.5" y="585" width="147.5" height="155" as="geometry" />
        </mxCell>
        <mxCell id="BlD8Izyi_1TjI5sXSvks-29" value="" style="edgeStyle=orthogonalEdgeStyle;rounded=0;orthogonalLoop=1;jettySize=auto;html=1;" edge="1" parent="1" source="BlD8Izyi_1TjI5sXSvks-26" target="BlD8Izyi_1TjI5sXSvks-28">
          <mxGeometry relative="1" as="geometry" />
        </mxCell>
        <mxCell id="BlD8Izyi_1TjI5sXSvks-30" value="ДА" style="edgeLabel;html=1;align=center;verticalAlign=middle;resizable=0;points=[];" vertex="1" connectable="0" parent="BlD8Izyi_1TjI5sXSvks-29">
          <mxGeometry x="-0.3533" relative="1" as="geometry">
            <mxPoint as="offset" />
          </mxGeometry>
        </mxCell>
        <mxCell id="BlD8Izyi_1TjI5sXSvks-44" style="edgeStyle=orthogonalEdgeStyle;rounded=0;orthogonalLoop=1;jettySize=auto;html=1;" edge="1" parent="1" source="BlD8Izyi_1TjI5sXSvks-26" target="BlD8Izyi_1TjI5sXSvks-46">
          <mxGeometry relative="1" as="geometry">
            <mxPoint x="70" y="895" as="targetPoint" />
          </mxGeometry>
        </mxCell>
        <mxCell id="BlD8Izyi_1TjI5sXSvks-45" value="НЕТ" style="edgeLabel;html=1;align=center;verticalAlign=middle;resizable=0;points=[];" vertex="1" connectable="0" parent="BlD8Izyi_1TjI5sXSvks-44">
          <mxGeometry x="-0.2319" y="1" relative="1" as="geometry">
            <mxPoint as="offset" />
          </mxGeometry>
        </mxCell>
        <mxCell id="BlD8Izyi_1TjI5sXSvks-26" value="Есть на поле две&lt;div&gt;фигуры противника в ряд?&lt;/div&gt;" style="strokeWidth=2;html=1;shape=mxgraph.flowchart.decision;whiteSpace=wrap;" vertex="1" parent="1">
          <mxGeometry x="178.13" y="820" width="196.25" height="150" as="geometry" />
        </mxCell>
        <mxCell id="BlD8Izyi_1TjI5sXSvks-31" style="edgeStyle=orthogonalEdgeStyle;rounded=0;orthogonalLoop=1;jettySize=auto;html=1;" edge="1" parent="1" source="BlD8Izyi_1TjI5sXSvks-28" target="BlD8Izyi_1TjI5sXSvks-33">
          <mxGeometry relative="1" as="geometry">
            <mxPoint x="720" y="895" as="targetPoint" />
          </mxGeometry>
        </mxCell>
        <mxCell id="BlD8Izyi_1TjI5sXSvks-32" value="ДА" style="edgeLabel;html=1;align=center;verticalAlign=middle;resizable=0;points=[];" vertex="1" connectable="0" parent="BlD8Izyi_1TjI5sXSvks-31">
          <mxGeometry x="-0.0497" y="-1" relative="1" as="geometry">
            <mxPoint as="offset" />
          </mxGeometry>
        </mxCell>
        <mxCell id="BlD8Izyi_1TjI5sXSvks-40" style="edgeStyle=orthogonalEdgeStyle;rounded=0;orthogonalLoop=1;jettySize=auto;html=1;" edge="1" parent="1" source="BlD8Izyi_1TjI5sXSvks-28" target="BlD8Izyi_1TjI5sXSvks-42">
          <mxGeometry relative="1" as="geometry">
            <mxPoint x="540" y="1040" as="targetPoint" />
          </mxGeometry>
        </mxCell>
        <mxCell id="BlD8Izyi_1TjI5sXSvks-41" value="НЕТ" style="edgeLabel;html=1;align=center;verticalAlign=middle;resizable=0;points=[];" vertex="1" connectable="0" parent="BlD8Izyi_1TjI5sXSvks-40">
          <mxGeometry x="-0.1498" y="-2" relative="1" as="geometry">
            <mxPoint as="offset" />
          </mxGeometry>
        </mxCell>
        <mxCell id="BlD8Izyi_1TjI5sXSvks-28" value="Можно закрыть этот ряд&lt;div&gt;с одного из концов?&lt;/div&gt;" style="rhombus;whiteSpace=wrap;html=1;strokeWidth=2;" vertex="1" parent="1">
          <mxGeometry x="450" y="815.63" width="180" height="158.75" as="geometry" />
        </mxCell>
        <mxCell id="BlD8Izyi_1TjI5sXSvks-35" value="" style="edgeStyle=orthogonalEdgeStyle;rounded=0;orthogonalLoop=1;jettySize=auto;html=1;entryX=0.5;entryY=0;entryDx=0;entryDy=0;entryPerimeter=0;" edge="1" parent="1" source="BlD8Izyi_1TjI5sXSvks-33" target="BlD8Izyi_1TjI5sXSvks-39">
          <mxGeometry relative="1" as="geometry">
            <mxPoint x="750" y="1045" as="targetPoint" />
          </mxGeometry>
        </mxCell>
        <mxCell id="BlD8Izyi_1TjI5sXSvks-33" value="Нарисовать свою&lt;div&gt;фигуру&lt;/div&gt;" style="rounded=1;whiteSpace=wrap;html=1;absoluteArcSize=1;arcSize=14;strokeWidth=2;" vertex="1" parent="1">
          <mxGeometry x="700" y="845" width="100" height="100" as="geometry" />
        </mxCell>
        <mxCell id="BlD8Izyi_1TjI5sXSvks-36" value="" style="group" vertex="1" connectable="0" parent="1">
          <mxGeometry x="120" y="-120" width="120" height="120" as="geometry" />
        </mxCell>
        <mxCell id="BlD8Izyi_1TjI5sXSvks-1" value="" style="whiteSpace=wrap;html=1;aspect=fixed;movable=1;resizable=1;rotatable=1;deletable=1;editable=1;locked=0;connectable=1;" vertex="1" parent="BlD8Izyi_1TjI5sXSvks-36">
          <mxGeometry width="120" height="120" as="geometry" />
        </mxCell>
        <mxCell id="BlD8Izyi_1TjI5sXSvks-2" value="" style="endArrow=none;html=1;rounded=0;movable=1;resizable=1;rotatable=1;deletable=1;editable=1;locked=0;connectable=1;" edge="1" parent="BlD8Izyi_1TjI5sXSvks-36">
          <mxGeometry width="50" height="50" relative="1" as="geometry">
            <mxPoint x="40" y="120" as="sourcePoint" />
            <mxPoint x="40" as="targetPoint" />
          </mxGeometry>
        </mxCell>
        <mxCell id="BlD8Izyi_1TjI5sXSvks-3" value="" style="endArrow=none;html=1;rounded=0;movable=1;resizable=1;rotatable=1;deletable=1;editable=1;locked=0;connectable=1;" edge="1" parent="BlD8Izyi_1TjI5sXSvks-36">
          <mxGeometry width="50" height="50" relative="1" as="geometry">
            <mxPoint x="80" y="120" as="sourcePoint" />
            <mxPoint x="80" as="targetPoint" />
          </mxGeometry>
        </mxCell>
        <mxCell id="BlD8Izyi_1TjI5sXSvks-4" value="" style="endArrow=none;html=1;rounded=0;exitX=0.003;exitY=0.336;exitDx=0;exitDy=0;exitPerimeter=0;movable=1;resizable=1;rotatable=1;deletable=1;editable=1;locked=0;connectable=1;" edge="1" parent="BlD8Izyi_1TjI5sXSvks-36" source="BlD8Izyi_1TjI5sXSvks-1">
          <mxGeometry width="50" height="50" relative="1" as="geometry">
            <mxPoint x="90" y="130" as="sourcePoint" />
            <mxPoint x="120" y="40" as="targetPoint" />
          </mxGeometry>
        </mxCell>
        <mxCell id="BlD8Izyi_1TjI5sXSvks-5" value="" style="endArrow=none;html=1;rounded=0;exitX=0.003;exitY=0.336;exitDx=0;exitDy=0;exitPerimeter=0;movable=1;resizable=1;rotatable=1;deletable=1;editable=1;locked=0;connectable=1;" edge="1" parent="BlD8Izyi_1TjI5sXSvks-36">
          <mxGeometry width="50" height="50" relative="1" as="geometry">
            <mxPoint y="80" as="sourcePoint" />
            <mxPoint x="120" y="80" as="targetPoint" />
          </mxGeometry>
        </mxCell>
        <mxCell id="BlD8Izyi_1TjI5sXSvks-6" value="" style="shape=umlDestroy;whiteSpace=wrap;html=1;strokeWidth=3;targetShapes=umlLifeline;movable=1;resizable=1;rotatable=1;deletable=1;editable=1;locked=0;connectable=1;" vertex="1" parent="BlD8Izyi_1TjI5sXSvks-36">
          <mxGeometry x="90" y="10" width="20" height="20" as="geometry" />
        </mxCell>
        <mxCell id="BlD8Izyi_1TjI5sXSvks-38" style="edgeStyle=orthogonalEdgeStyle;rounded=0;orthogonalLoop=1;jettySize=auto;html=1;exitX=0.5;exitY=1;exitDx=0;exitDy=0;exitPerimeter=0;" edge="1" parent="1" source="BlD8Izyi_1TjI5sXSvks-37" target="BlD8Izyi_1TjI5sXSvks-9">
          <mxGeometry relative="1" as="geometry" />
        </mxCell>
        <mxCell id="BlD8Izyi_1TjI5sXSvks-37" value="Найдена своя фигура" style="strokeWidth=2;html=1;shape=mxgraph.flowchart.start_1;whiteSpace=wrap;" vertex="1" parent="1">
          <mxGeometry x="-50" y="220" width="100" height="60" as="geometry" />
        </mxCell>
        <mxCell id="BlD8Izyi_1TjI5sXSvks-39" value="Завершить&lt;div&gt;ход&lt;/div&gt;" style="strokeWidth=2;html=1;shape=mxgraph.flowchart.terminator;whiteSpace=wrap;strokeColor=#FF0000;" vertex="1" parent="1">
          <mxGeometry x="700" y="1010" width="100" height="60" as="geometry" />
        </mxCell>
        <mxCell id="BlD8Izyi_1TjI5sXSvks-42" value="Пойти искать другую свою фигуру" style="rounded=1;whiteSpace=wrap;html=1;absoluteArcSize=1;arcSize=14;strokeWidth=2;strokeColor=#99FF33;" vertex="1" parent="1">
          <mxGeometry x="490" y="1030" width="100" height="100" as="geometry" />
        </mxCell>
        <mxCell id="BlD8Izyi_1TjI5sXSvks-43" style="edgeStyle=orthogonalEdgeStyle;rounded=0;orthogonalLoop=1;jettySize=auto;html=1;entryX=0;entryY=0.5;entryDx=0;entryDy=0;entryPerimeter=0;" edge="1" parent="1" source="BlD8Izyi_1TjI5sXSvks-42" target="BlD8Izyi_1TjI5sXSvks-37">
          <mxGeometry relative="1" as="geometry">
            <Array as="points">
              <mxPoint x="-200" y="1080" />
              <mxPoint x="-200" y="250" />
            </Array>
          </mxGeometry>
        </mxCell>
        <mxCell id="BlD8Izyi_1TjI5sXSvks-46" value="Пойти искать другую фигуру&lt;div&gt;противника&lt;/div&gt;" style="rounded=1;whiteSpace=wrap;html=1;absoluteArcSize=1;arcSize=14;strokeWidth=2;" vertex="1" parent="1">
          <mxGeometry y="845.01" width="100" height="100" as="geometry" />
        </mxCell>
      </root>
    </mxGraphModel>
  </diagram>
</mxfile>
